<svg width="64" height="64" viewBox="0 0 64 64" fill="none" xmlns="http://www.w3.org/2000/svg">
<path d="M53.3333 29.3333V26.6667C53.3333 16.61 53.3333 11.5817 50.0254 8.45753C46.7174 5.33333 41.3933 5.33333 30.7451 5.33333L27.9216 5.33333C17.2734 5.33333 11.9493 5.33333 8.64131 8.45753C5.33334 11.5817 5.33333 16.61 5.33333 26.6667L5.33333 37.3333C5.33333 47.39 5.33333 52.4183 8.6413 55.5425C11.9493 58.6667 17.2734 58.6667 27.9216 58.6667H29.3333" stroke="#740E10" stroke-width="2" stroke-linecap="round"/>
<path d="M18.6667 18.6667H40" stroke="#740E10" stroke-width="2" stroke-linecap="round"/>
<path d="M18.6667 32H40" stroke="#740E10" stroke-width="2" stroke-linecap="round"/>
<path d="M40.9272 58.2819L40.7181 57.304L40.7181 57.304L40.9272 58.2819ZM37.7181 55.0728L38.696 55.2819L37.7181 55.0728ZM40.0551 48.2979L39.348 47.5908L39.348 47.5908L40.0551 48.2979ZM47.7021 55.9449L46.995 55.2378L46.995 55.2378L47.7021 55.9449ZM58.1233 41.2728L58.9894 40.7728L58.9894 40.7728L58.1233 41.2728ZM56.523 47.124L57.2301 47.8311L57.2301 47.8311L56.523 47.124ZM58.1233 45.3282L58.9894 45.8282L58.9894 45.8282L58.1233 45.3282ZM54.7272 37.8767L55.2272 37.0106L55.2272 37.0106L54.7272 37.8767ZM48.876 39.477L49.5831 40.1841L49.5831 40.1841L48.876 39.477ZM50.6718 37.8767L50.1718 37.0106L50.1718 37.0106L50.6718 37.8767ZM56.523 47.124L55.8159 46.4169L46.995 55.2378L47.7021 55.9449L48.4092 56.652L57.2301 47.8311L56.523 47.124ZM40.0551 48.2979L40.7622 49.005L49.5831 40.1841L48.876 39.477L48.1689 38.7699L39.348 47.5908L40.0551 48.2979ZM40.9272 58.2819L40.7181 57.304C39.7658 57.5077 39.1624 57.634 38.729 57.6616C38.5238 57.6746 38.4183 57.6599 38.3704 57.6476C38.3499 57.6423 38.3446 57.6386 38.3479 57.6404C38.352 57.6426 38.3551 57.6454 38.3548 57.6452L37.6477 58.3523L36.9406 59.0594C37.5023 59.621 38.2215 59.6979 38.8559 59.6575C39.4724 59.6183 40.2489 59.4496 41.1363 59.2598L40.9272 58.2819ZM37.7181 55.0728L36.7402 54.8637C36.5504 55.7511 36.3817 56.5276 36.3425 57.1441C36.3021 57.7785 36.379 58.4977 36.9406 59.0594L37.6477 58.3523L38.3548 57.6452C38.3546 57.6449 38.3574 57.648 38.3596 57.6521C38.3614 57.6554 38.3577 57.6501 38.3524 57.6296C38.3401 57.5817 38.3254 57.4762 38.3384 57.271C38.366 56.8376 38.4923 56.2342 38.696 55.2819L37.7181 55.0728ZM56.523 39.477L55.8159 40.1841C56.7503 41.1186 57.0728 41.4532 57.2573 41.7728L58.1233 41.2728L58.9894 40.7728C58.64 40.1677 58.0735 39.6133 57.2301 38.7699L56.523 39.477ZM56.523 47.124L57.2301 47.8311C58.0735 46.9877 58.64 46.4333 58.9894 45.8282L58.1233 45.3282L57.2573 44.8282C57.0728 45.1478 56.7503 45.4824 55.8159 46.4169L56.523 47.124ZM58.1233 41.2728L57.2573 41.7728C57.8031 42.7181 57.8031 43.8828 57.2573 44.8282L58.1233 45.3282L58.9894 45.8282C59.8924 44.264 59.8924 42.3369 58.9894 40.7728L58.1233 41.2728ZM56.523 39.477L57.2301 38.7699C56.3867 37.9265 55.8323 37.36 55.2272 37.0106L54.7272 37.8767L54.2272 38.7427C54.5468 38.9272 54.8814 39.2497 55.8159 40.1841L56.523 39.477ZM48.876 39.477L49.5831 40.1841C50.5176 39.2497 50.8522 38.9272 51.1718 38.7427L50.6718 37.8767L50.1718 37.0106C49.5667 37.36 49.0123 37.9265 48.1689 38.7699L48.876 39.477ZM54.7272 37.8767L55.2272 37.0106C53.6631 36.1076 51.736 36.1076 50.1718 37.0106L50.6718 37.8767L51.1718 38.7427C52.1172 38.1969 53.2819 38.1969 54.2272 38.7427L54.7272 37.8767ZM47.7021 55.9449L46.995 55.2378C46.2937 55.939 45.3847 56.3369 44.2888 56.6167C43.7403 56.7567 43.1658 56.8623 42.5604 56.9669C41.9668 57.0695 41.3314 57.1729 40.7181 57.304L40.9272 58.2819L41.1363 59.2598C41.6995 59.1394 42.2789 59.0452 42.9009 58.9377C43.511 58.8323 44.1527 58.7156 44.7835 58.5545C46.0462 58.2321 47.3482 57.713 48.4092 56.652L47.7021 55.9449ZM37.7181 55.0728L38.696 55.2819C38.8271 54.6686 38.9305 54.0332 39.0331 53.4396C39.1377 52.8342 39.2433 52.2597 39.3833 51.7112C39.6631 50.6153 40.061 49.7063 40.7622 49.005L40.0551 48.2979L39.348 47.5908C38.287 48.6518 37.7679 49.9538 37.4455 51.2165C37.2844 51.8473 37.1677 52.489 37.0623 53.0991C36.9548 53.7211 36.8606 54.3005 36.7402 54.8637L37.7181 55.0728Z" fill="#740E10"/>
</svg>
