<svg width="64" height="64" viewBox="0 0 64 64" fill="none" xmlns="http://www.w3.org/2000/svg">
<path d="M58.295 14.378C59.4334 17.3236 57.8369 19.3403 54.7468 21.3268C52.2535 22.9296 49.077 24.666 45.7112 27.6346C42.4116 30.5448 39.1915 34.05 36.3298 37.4999C33.4797 40.9359 31.0572 44.2294 29.3456 46.668C28.2396 48.2438 26.696 50.5944 26.696 50.5944C25.6075 52.3167 23.6505 53.359 21.5522 53.3328C19.4533 53.3067 17.5255 52.2166 16.4841 50.467C13.8221 45.9948 11.7679 44.2286 10.8238 43.5942C8.29753 41.8966 5.33333 41.6455 5.33333 37.6895C5.33333 34.5477 7.98638 32.0008 11.2591 32.0008C13.5696 32.0861 15.7173 32.9948 17.6201 34.2735C18.8365 35.0909 20.125 36.172 21.4653 37.5951C23.0382 35.4496 24.9338 32.9742 27.0586 30.4126C30.1444 26.6924 33.7868 22.7016 37.693 19.2564C41.5328 15.8697 45.9723 12.6996 50.678 11.0235C53.7463 9.93059 57.1565 11.4325 58.295 14.378Z" stroke="#740E10" stroke-width="2" stroke-linecap="round" stroke-linejoin="round"/>
</svg>
