<svg width="64" height="64" viewBox="0 0 64 64" fill="none" xmlns="http://www.w3.org/2000/svg">
<path d="M33.3333 58.6667H17.5757C13.4546 58.6667 10.1768 56.6614 7.23377 53.8575C1.20897 48.1176 11.1008 43.5307 14.8735 41.2842C20.872 37.7125 27.964 36.5625 34.6667 37.8342" stroke="#740E10" stroke-width="2" stroke-linecap="round" stroke-linejoin="round"/>
<path d="M41.3333 17.3333C41.3333 23.9607 35.9608 29.3333 29.3333 29.3333C22.7059 29.3333 17.3333 23.9607 17.3333 17.3333C17.3333 10.7059 22.7059 5.33333 29.3333 5.33333C35.9608 5.33333 41.3333 10.7059 41.3333 17.3333Z" stroke="#740E10" stroke-width="2"/>
<path d="M49.8428 38.8738L51.7199 42.6591C51.9759 43.186 52.6585 43.6914 53.2344 43.7882L56.6367 44.3581C58.8125 44.7238 59.3244 46.3153 57.7566 47.8853L55.1116 50.5522C54.6636 51.0039 54.4183 51.8749 54.557 52.4986L55.3142 55.8C55.9115 58.4131 54.5356 59.424 52.2425 58.0583L49.0536 56.1549C48.4776 55.8107 47.5284 55.8107 46.9418 56.1549L43.7528 58.0583C41.4704 59.424 40.0839 58.4024 40.6812 55.8L41.4384 52.4986C41.5771 51.8749 41.3317 51.0039 40.8838 50.5522L38.2388 47.8853C36.6816 46.3153 37.1829 44.7238 39.3586 44.3581L42.7609 43.7882C43.3262 43.6914 44.0088 43.186 44.2648 42.6591L46.1419 38.8738C47.1658 36.8198 48.8296 36.8198 49.8428 38.8738Z" stroke="#740E10" stroke-width="2" stroke-linecap="round" stroke-linejoin="round"/>
</svg>
