<svg width="64" height="64" viewBox="0 0 64 64" fill="none" xmlns="http://www.w3.org/2000/svg">
<path d="M48.0009 49.3333L48.7405 45.6367C49.1316 43.6816 50.1769 41.8795 50.5498 39.9208C50.6271 39.5146 50.6676 39.0954 50.6676 38.6667C50.6676 34.9848 47.6828 32 44.0009 32C40.319 32 37.3342 34.9848 37.3342 38.6667C37.3342 39.0954 37.3747 39.5146 37.452 39.9208C37.8248 41.8795 38.8701 43.6816 39.2613 45.6367L40.0009 49.3333M48.0009 49.3333H40.0009M48.0009 49.3333L54.6576 51.1091C57.0001 51.6296 58.6667 53.7073 58.6667 56.1068C58.6667 57.5206 57.5206 58.6667 56.1068 58.6667H54.6576H33.3333H31.8932C30.4794 58.6667 29.3333 57.5206 29.3333 56.1068C29.3333 53.7073 30.9999 51.6296 33.3424 51.1091L40.0009 49.3333" stroke="#740E10" stroke-width="2"/>
<path d="M45.3333 24V21.3333C45.3333 13.7909 45.3333 10.0196 42.9902 7.67648C40.647 5.33334 36.8758 5.33334 29.3333 5.33334H21.3333C13.7909 5.33334 10.0196 5.33334 7.67648 7.67648C5.33333 10.0196 5.33333 13.7909 5.33333 21.3333V42.6667C5.33333 50.2091 5.33333 53.9804 7.67648 56.3235C10.0196 58.6667 13.7909 58.6667 21.3333 58.6667" stroke="#740E10" stroke-width="2" stroke-linecap="round"/>
<path d="M18.6667 23.1111C18.6667 23.1111 20.3333 23.1111 22 26.6667C22 26.6667 27.2941 17.7778 32 16" stroke="#740E10" stroke-width="2" stroke-linecap="round" stroke-linejoin="round"/>
<path d="M16 37.3333H26.6667" stroke="#740E10" stroke-width="2" stroke-linecap="round"/>
<path d="M16 45.3333H26.6667" stroke="#740E10" stroke-width="2" stroke-linecap="round"/>
</svg>
