<svg width="64" height="64" viewBox="0 0 64 64" fill="none" xmlns="http://www.w3.org/2000/svg">
<path d="M10.0737 31.8463C7.5456 27.4382 6.32493 23.8386 5.5889 20.1899C4.50033 14.7935 6.9915 9.52215 11.1184 6.1586C12.8625 4.73702 14.862 5.22272 15.8933 7.07307L18.2218 11.2504C20.0674 14.5615 20.9902 16.2171 20.8072 17.9722C20.6242 19.7274 19.3797 21.157 16.8906 24.016L10.0737 31.8463ZM10.0737 31.8463C15.1907 40.7687 23.2209 48.8034 32.1537 53.9263M32.1537 53.9263C36.5619 56.4544 40.1614 57.6751 43.8101 58.4111C49.2065 59.4997 54.4779 57.0085 57.8414 52.8817C59.263 51.1375 58.7773 49.1381 56.9269 48.1067L52.7496 45.7782C49.4385 43.9326 47.783 43.0098 46.0278 43.1928C44.2726 43.3758 42.843 44.6204 39.984 47.1094L32.1537 53.9263Z" stroke="#740E10" stroke-width="2" stroke-linejoin="round"/>
<path d="M37.3333 18.2183C41.1287 19.83 44.1701 22.8714 45.7818 26.6667M39.0774 5.33334C48.5099 8.05536 55.9443 15.4894 58.6667 24.9217" stroke="#740E10" stroke-width="2" stroke-linecap="round"/>
</svg>
