<svg width="64" height="64" viewBox="0 0 64 64" fill="none" xmlns="http://www.w3.org/2000/svg">
<path d="M24.3847 6.66667C17.2993 6.82867 13.1608 7.50549 10.3331 10.3331C7.50549 13.1608 6.82867 17.2993 6.66667 24.3847M39.6153 6.66667C46.7007 6.82867 50.8392 7.50549 53.6669 10.3331C56.4945 13.1608 57.1713 17.2993 57.3333 24.3847M39.6153 57.3333C46.7007 57.1713 50.8392 56.4945 53.6669 53.6669C56.4945 50.8392 57.1713 46.7007 57.3333 39.6153M24.3847 57.3333C17.2993 57.1713 13.1608 56.4945 10.3331 53.6669C7.50549 50.8392 6.82867 46.7007 6.66667 39.6153" stroke="#740E10" stroke-width="2" stroke-linecap="round" stroke-linejoin="round"/>
<path d="M21.3328 21.3333H21.3568" stroke="#740E10" stroke-width="4" stroke-linecap="round" stroke-linejoin="round"/>
<path d="M42.6662 42.6667H42.6901" stroke="#740E10" stroke-width="4" stroke-linecap="round" stroke-linejoin="round"/>
<path d="M21.3333 42.6667L42.6667 21.3333" stroke="#740E10" stroke-width="2" stroke-linecap="round"/>
</svg>
