<svg width="36" height="36" viewBox="0 0 36 36" fill="none" xmlns="http://www.w3.org/2000/svg">
<path d="M3.75 18C3.75 11.2825 3.75 7.92373 5.83686 5.83686C7.92373 3.75 11.2825 3.75 18 3.75C24.7175 3.75 28.0763 3.75 30.1631 5.83686C32.25 7.92373 32.25 11.2825 32.25 18C32.25 24.7175 32.25 28.0763 30.1631 30.1631C28.0763 32.25 24.7175 32.25 18 32.25C11.2825 32.25 7.92373 32.25 5.83686 30.1631C3.75 28.0763 3.75 24.7175 3.75 18Z" stroke="#740E10" stroke-width="2" stroke-linejoin="round"/>
<path d="M25.5 13C26.0523 13 26.5 12.5523 26.5 12C26.5 11.4477 26.0523 11 25.5 11L25.5 12L25.5 13ZM24 12L24 13L24 12ZM17 32.25C17 32.8023 17.4477 33.25 18 33.25C18.5523 33.25 19 32.8023 19 32.25H18H17ZM15 20C14.4477 20 14 20.4477 14 21C14 21.5523 14.4477 22 15 22V21V20ZM22.5 22C23.0523 22 23.5 21.5523 23.5 21C23.5 20.4477 23.0523 20 22.5 20V21V22ZM25.5 12L25.5 11L24 11L24 12L24 13L25.5 13L25.5 12ZM18 18H17V32.25H18H19V18H18ZM24 12V11C22.6141 11 21.474 10.9979 20.5749 11.1188C19.6471 11.2435 18.8277 11.5155 18.1716 12.1716L18.8787 12.8787L19.5858 13.5858C19.8084 13.3632 20.1354 13.1958 20.8414 13.1009C21.5763 13.0021 22.5575 13 24 13V12ZM18 18H19C19 16.5575 19.0021 15.5763 19.1009 14.8414C19.1958 14.1354 19.3632 13.8084 19.5858 13.5858L18.8787 12.8787L18.1716 12.1716C17.5155 12.8277 17.2435 13.6471 17.1188 14.5749C16.9979 15.474 17 16.6141 17 18H18ZM15 21V22H22.5V21V20H15V21Z" fill="#740E10"/>
</svg>
