<svg width="36" height="36" viewBox="0 0 36 36" fill="none" xmlns="http://www.w3.org/2000/svg">
<path d="M3.75 18C3.75 11.2825 3.75 7.92373 5.83686 5.83686C7.92373 3.75 11.2825 3.75 18 3.75C24.7175 3.75 28.0763 3.75 30.1631 5.83686C32.25 7.92373 32.25 11.2825 32.25 18C32.25 24.7175 32.25 28.0763 30.1631 30.1631C28.0763 32.25 24.7175 32.25 18 32.25C11.2825 32.25 7.92373 32.25 5.83686 30.1631C3.75 28.0763 3.75 24.7175 3.75 18Z" stroke="#740E10" stroke-width="2" stroke-linejoin="round"/>
<path d="M24.75 18C24.75 21.7279 21.7279 24.75 18 24.75C14.2721 24.75 11.25 21.7279 11.25 18C11.25 14.2721 14.2721 11.25 18 11.25C21.7279 11.25 24.75 14.2721 24.75 18Z" stroke="#740E10" stroke-width="2"/>
<path d="M26.2617 9.75L26.2482 9.75" stroke="#740E10" stroke-width="4" stroke-linecap="round" stroke-linejoin="round"/>
</svg>
