<svg width="64" height="64" viewBox="0 0 64 64" fill="none" xmlns="http://www.w3.org/2000/svg">
<path d="M14.0092 11.1889L10.7349 13.0883C8.09969 14.617 6.7821 15.3813 6.05771 16.6529C5.33333 17.9244 5.33333 19.4729 5.33333 22.5698V44.3421C5.33333 48.4113 5.33333 50.4458 6.24603 51.5782C6.85335 52.3317 7.70441 52.8382 8.64533 53.0061C10.0594 53.2584 11.7906 52.2541 15.253 50.2456C17.6041 48.8817 19.867 47.4651 22.6796 47.8493C23.9591 48.024 25.1795 48.6308 27.6203 49.8444L37.7906 54.9014C39.9905 55.9953 40.0106 56 42.4569 56H48C53.0283 56 55.5425 56 57.1046 54.4034C58.6667 52.8068 58.6667 50.2372 58.6667 45.0978V27.1239C58.6667 21.9846 58.6667 19.4149 57.1046 17.8184C55.5425 16.2218 53.0283 16.2218 48 16.2218H42.4569C40.0106 16.2218 39.9905 16.217 37.7906 15.1232L28.9063 10.7057C25.1969 8.86125 23.3422 7.93903 21.3663 8.00313C19.3905 8.06722 17.5967 9.10778 14.0092 11.1889Z" stroke="#740E10" stroke-width="2" stroke-linecap="round" stroke-linejoin="round"/>
<path d="M21.3333 8L21.3333 46.6667" stroke="#740E10" stroke-width="2" stroke-linecap="round" stroke-linejoin="round"/>
<path d="M40 17.3333L40 54.6667" stroke="#740E10" stroke-width="2" stroke-linecap="round" stroke-linejoin="round"/>
</svg>
