<svg width="64" height="64" viewBox="0 0 64 64" fill="none" xmlns="http://www.w3.org/2000/svg">
<path d="M26.6667 24V29.3333" stroke="#740E10" stroke-width="2" stroke-linecap="round"/>
<ellipse cx="45.3333" cy="48" rx="5.33333" ry="5.33333" stroke="#740E10" stroke-width="2"/>
<ellipse cx="18.6667" cy="48" rx="5.33333" ry="5.33333" stroke="#740E10" stroke-width="2"/>
<path d="M13.3333 47.9265C10.4087 47.7807 8.58429 47.3457 7.28597 46.0474C5.33334 44.0948 5.33334 40.9521 5.33334 34.6667V24C5.33334 17.7146 5.33334 14.5719 7.28597 12.6193C9.23859 10.6667 12.3813 10.6667 18.6667 10.6667H27.4667C30.4447 10.6667 31.9338 10.6667 33.1388 11.0582C35.5743 11.8496 37.4838 13.759 38.2751 16.1945C38.6667 17.3996 38.6667 18.8886 38.6667 21.8667C38.6667 23.852 38.6667 24.8447 38.9277 25.6481C39.4553 27.2718 40.7283 28.5447 42.3519 29.0723C43.1553 29.3333 44.148 29.3333 46.1333 29.3333H58.6667V34.6667C58.6667 40.9521 58.6667 44.0948 56.7141 46.0474C55.4157 47.3457 53.5913 47.7807 50.6667 47.9265M24 48H40" stroke="#740E10" stroke-width="2" stroke-linecap="round" stroke-linejoin="round"/>
<path d="M38.6667 16H43.5232C47.4042 16 49.3446 16 50.9238 16.9432C52.503 17.8865 53.4229 19.595 55.2629 23.012L58.6667 29.3333" stroke="#740E10" stroke-width="2" stroke-linecap="round" stroke-linejoin="round"/>
<path d="M16 24V29.3333" stroke="#740E10" stroke-width="2" stroke-linecap="round"/>
</svg>
