<svg width="64" height="64" viewBox="0 0 64 64" fill="none" xmlns="http://www.w3.org/2000/svg">
<path d="M10.0737 31.8463C7.54559 27.4381 6.32492 23.8386 5.58889 20.1899C4.50032 14.7935 6.99149 9.52215 11.1183 6.15859C12.8625 4.73702 14.8619 5.22271 15.8933 7.07306L18.2218 11.2504C20.0674 14.5615 20.9902 16.217 20.8072 17.9722C20.6242 19.7274 19.3796 21.157 16.8906 24.016L10.0737 31.8463ZM10.0737 31.8463C15.1907 40.7687 23.2209 48.8034 32.1537 53.9263M32.1537 53.9263C36.5618 56.4544 40.1614 57.6751 43.8101 58.4111C49.2064 59.4997 54.4778 57.0085 57.8414 52.8817C59.263 51.1375 58.7773 49.138 56.9269 48.1067L52.7496 45.7782C49.4385 43.9326 47.7829 43.0097 46.0278 43.1928C44.2726 43.3758 42.843 44.6204 39.984 47.1094L32.1537 53.9263Z" stroke="#740E10" stroke-width="2" stroke-linejoin="round"/>
<path d="M32 18.6667H34.2857C35.3632 18.6667 35.902 18.6667 36.2367 18.9921C36.5714 19.3175 36.5714 19.8413 36.5714 20.8889C36.5714 22.984 36.5714 24.0316 35.902 24.6825C35.3928 25.1775 34.6476 25.296 33.372 25.3244C32.7178 25.339 32.3907 25.3462 32.1953 25.5405C32 25.7348 32 26.0454 32 26.6667V29.7778C32 30.8253 32 31.3491 32.3347 31.6746C32.6695 32 33.2082 32 34.2857 32H36.5714M48 18.6667V25.3333M48 25.3333H44.1143C43.2523 25.3333 42.8213 25.3333 42.5535 25.073C42.2857 24.8126 42.2857 24.3936 42.2857 23.5556V18.6667M48 25.3333V32" stroke="#740E10" stroke-width="2" stroke-linecap="round" stroke-linejoin="round"/>
<path d="M26.6667 11.4805C26.9041 11.2138 27.1506 10.9524 27.4063 10.6968C34.5576 3.54552 46.152 3.54552 53.3032 10.6968C60.4545 17.848 60.4545 29.4424 53.3032 36.5937C53.0476 36.8494 52.7862 37.0959 52.5195 37.3333" stroke="#740E10" stroke-width="2" stroke-linecap="round"/>
</svg>
